<svg xmlns="http://www.w3.org/2000/svg" xmlns:xlink="http://www.w3.org/1999/xlink" width="268" height="63" viewBox="0 0 268 63"><defs><clipPath id="a"><rect width="88" height="63" transform="translate(260 70)" fill="#fff" stroke="#707070" stroke-width="1"/></clipPath></defs><g transform="translate(-262 -19)"><g transform="translate(2 -51)" clip-path="url(#a)"><g transform="translate(280.34 70)"><path d="M361.3,133.457s-25.961,8.705-28.513,22.481c-1.434,14.056,12.4,22.075,12.4,22.075l-5.274.133,11.058,18.735,8.042-19.191-6.413.045s-12.946-9.607-12.869-19.327C339.829,145.982,361.3,133.457,361.3,133.457Z" transform="translate(-332.682 -133.457)" fill="#fff" fill-rule="evenodd"/><path d="M591.185,133.472s-22.094,8.843-22.075,21.206c0,1.919-1.5,12.075,14.892,27.711C561.909,181.427,542.145,134.252,591.185,133.472Z" transform="translate(-546.382 -133.471)" fill="#fff" fill-rule="evenodd"/><path d="M647.954,418.379a12.177,12.177,0,0,1,2.168-8.483c4.509-.676,14.225.923,14.044,1.131s18.716,3.359,7.823,25.826c-5.729,11.817-19.418,17.272-19.418,17.272s15.5-18.236,15.271-30.185C667.627,412.566,647.954,418.379,647.954,418.379Z" transform="translate(-628.053 -392.364)" fill="#fff" fill-rule="evenodd"/></g></g><text transform="translate(379 57)" fill="#fff" font-size="20" font-family="Roboto-Bold, Roboto" font-weight="700"><tspan x="-43.979" y="0">6WITCHH</tspan></text><text transform="translate(478 57)" fill="#ec6347" font-size="20" font-family="Roboto-Bold, Roboto" font-weight="700"><tspan x="-51.382" y="0">CONCEPTS</tspan></text></g></svg>